<?xml version="1.0" standalone="no"?>
<!DOCTYPE svg PUBLIC "-//W3C//DTD SVG 20010904//EN"
 "http://www.w3.org/TR/2001/REC-SVG-20010904/DTD/svg10.dtd">
<svg version="1.0" xmlns="http://www.w3.org/2000/svg"
 width="1588.000000pt" height="1588.000000pt" viewBox="0 0 1588.000000 1588.000000"
 preserveAspectRatio="xMidYMid meet">

<g transform="translate(0.000000,1588.000000) scale(0.100000,-0.100000)"
fill="#000000" stroke="none">
<path d="M7855 13858 c-91 -32 -123 -109 -145 -353 -29 -320 -62 -616 -80
-737 -44 -275 -45 -302 -10 -333 26 -23 92 -36 185 -36 74 -1 80 1 98 25 11
15 28 26 41 26 66 0 173 -134 123 -153 -8 -3 -38 3 -68 14 -93 32 -326 22
-386 -17 -33 -21 -30 -75 8 -154 17 -36 40 -87 51 -114 61 -154 126 -697 130
-1081 2 -169 -14 -226 -99 -353 -34 -51 -65 -109 -69 -128 -15 -81 29 -203 92
-250 55 -42 133 -41 229 5 81 38 143 42 241 17 82 -21 196 -21 241 0 86 41
109 154 55 269 -16 33 -54 101 -84 150 -127 206 -154 288 -168 515 -31 474
-31 479 -77 657 -28 110 -17 165 65 327 40 77 72 147 72 154 0 7 -22 37 -50
66 -55 58 -62 86 -30 126 26 33 25 47 -9 111 -69 129 -110 341 -176 911 -28
247 -41 312 -62 333 -17 17 -74 18 -118 3z"/>
<path d="M7512 10163 c-17 -33 -23 -74 -23 -158 0 -114 16 -192 66 -310 111
-260 142 -426 155 -815 12 -338 24 -521 50 -725 45 -361 59 -720 31 -820 -23
-82 -68 -152 -167 -256 -117 -124 -191 -221 -206 -271 -23 -78 27 -225 99
-289 54 -47 83 -41 213 46 61 41 118 75 126 75 8 0 29 14 47 31 l32 31 110 -4
c130 -5 222 -36 267 -90 l26 -33 37 18 c68 32 206 128 259 181 64 63 100 122
120 201 23 84 21 146 -5 179 -11 14 -64 56 -117 93 -139 96 -212 161 -233 208
-20 45 -30 148 -55 570 -8 149 -22 320 -30 380 -25 188 -28 392 -9 545 10 74
21 236 25 360 7 220 8 228 42 338 24 78 44 122 63 142 21 21 29 42 33 79 5 60
-13 142 -40 176 -24 30 -79 60 -129 69 -20 3 -44 15 -54 26 -23 25 -78 41
-119 34 -51 -9 -127 -36 -163 -57 -43 -25 -155 -34 -208 -17 -21 7 -64 28 -94
46 -65 39 -134 47 -149 17z"/>
<path d="M6973 9926 c-50 -29 -208 -156 -314 -253 -172 -158 -306 -207 -609
-223 -192 -10 -239 -21 -418 -104 -186 -85 -195 -86 -345 -40 -102 32 -185 32
-252 0 -68 -31 -112 -83 -121 -141 -11 -76 0 -115 45 -157 46 -44 74 -47 132
-17 46 23 69 14 69 -28 0 -30 22 -73 70 -138 134 -182 316 -315 428 -315 48 1
129 35 218 92 39 25 115 70 169 99 176 97 217 154 219 309 1 96 2 99 39 153
50 73 112 129 179 163 42 22 72 28 148 33 79 5 103 11 142 34 104 61 308 393
308 501 0 60 -38 71 -107 32z"/>
<path d="M8647 9666 c-185 -52 -223 -250 -176 -916 13 -193 38 -421 49 -447
l10 -23 47 19 c73 29 141 70 163 98 41 52 11 220 -65 360 -53 97 -75 181 -75
287 1 132 35 196 134 247 35 19 54 20 220 17 171 -3 183 -2 227 20 25 12 64
38 85 56 l39 34 -55 57 c-71 73 -163 146 -219 175 -39 19 -64 23 -190 26 -104
3 -160 0 -194 -10z"/>
<path d="M6980 9346 c-41 -18 -97 -44 -125 -58 -76 -39 -118 -48 -258 -58
-105 -7 -135 -12 -175 -33 -87 -46 -93 -72 -74 -352 20 -287 32 -598 32 -863
0 -286 -10 -360 -65 -479 -40 -86 -68 -127 -150 -213 -327 -344 -391 -480
-311 -656 34 -74 124 -166 189 -194 105 -45 232 -36 328 25 220 138 270 158
404 157 50 0 106 -5 125 -11 60 -19 133 -14 171 12 52 34 70 80 70 180 1 108
-18 166 -79 243 -106 133 -144 195 -167 270 -21 70 -19 111 14 242 17 64 35
169 41 232 51 548 108 812 209 967 45 68 76 97 153 146 89 56 104 103 69 216
-25 81 -60 139 -116 190 -89 82 -163 91 -285 37z"/>
<path d="M9320 9305 c-138 -84 -246 -108 -427 -98 -163 9 -198 -17 -197 -147
1 -96 29 -165 125 -312 118 -181 171 -317 213 -548 14 -74 50 -237 80 -362 57
-231 74 -344 62 -394 -4 -15 -40 -62 -80 -103 -105 -110 -150 -168 -195 -252
-43 -80 -71 -177 -71 -250 0 -61 32 -184 65 -251 47 -92 85 -119 116 -81 24
29 102 73 129 73 16 0 37 11 54 29 17 18 42 31 68 35 22 4 63 19 91 33 45 23
64 27 137 27 96 0 147 -19 210 -80 55 -52 102 -67 179 -58 87 10 103 8 190
-23 l74 -26 19 23 c15 19 18 40 18 135 0 185 -44 294 -174 433 -39 43 -87 99
-105 125 -76 111 -169 344 -274 692 -95 312 -107 358 -117 455 -11 112 -22
155 -61 233 -17 32 -27 62 -24 67 13 21 63 10 83 -17 26 -36 37 -26 82 71 70
153 119 342 106 409 -15 73 -95 147 -159 147 -13 0 -41 14 -62 30 -21 17 -47
30 -59 30 -11 0 -55 -21 -96 -45z"/>
<path d="M4822 8852 c-109 -39 -137 -96 -130 -264 6 -132 20 -180 118 -418
163 -395 245 -763 325 -1460 16 -145 25 -114 -98 -314 -109 -174 -147 -269
-154 -385 -6 -94 5 -164 38 -242 21 -48 23 -49 41 -33 38 35 88 124 99 175 24
111 51 124 264 124 146 0 152 -1 225 -32 51 -21 101 -34 150 -38 73 -7 76 -6
102 22 49 53 54 136 12 201 -9 15 -50 59 -89 97 -145 140 -221 262 -270 430
-55 190 -71 365 -81 862 l-7 352 44 43 c24 24 84 79 133 123 141 126 175 199
121 263 -13 16 -71 53 -127 83 -129 68 -222 137 -366 273 -62 58 -132 116
-154 127 -58 30 -132 34 -196 11z"/>
<path d="M7385 8818 c-90 -60 -175 -201 -230 -381 -41 -132 -36 -164 54 -314
63 -106 74 -130 81 -189 12 -93 29 -109 118 -109 116 1 112 -6 112 218 0 194
-15 589 -28 727 -7 71 -8 75 -33 78 -16 2 -43 -9 -74 -30z"/>
<path d="M9985 8833 c-90 -13 -173 -35 -205 -57 -72 -48 -137 -210 -147 -367
-7 -120 -1 -149 31 -149 20 0 32 14 67 78 79 144 202 241 324 257 69 9 220 43
251 57 13 6 23 16 21 22 -5 17 -116 103 -173 137 -51 29 -86 33 -169 22z"/>
<path d="M10039 8501 c-103 -33 -178 -100 -255 -229 -85 -141 -93 -259 -30
-447 59 -175 193 -430 226 -430 24 0 34 80 21 170 -7 56 -21 101 -46 150 -31
60 -33 71 -21 83 35 35 115 -24 196 -144 27 -41 92 -159 144 -264 l96 -190
-60 -120 c-65 -129 -72 -168 -45 -237 25 -64 35 -163 29 -274 -10 -155 15
-184 99 -115 108 88 229 122 400 113 119 -6 152 -19 163 -63 10 -40 -6 -46
-77 -28 -80 21 -192 14 -274 -17 -88 -33 -294 -149 -307 -173 -8 -14 -9 -106
-4 -316 4 -194 3 -308 -4 -332 -16 -55 -55 -95 -130 -133 -44 -22 -85 -54
-123 -94 -68 -74 -184 -247 -262 -391 -80 -147 -116 -198 -184 -264 -66 -62
-137 -100 -221 -117 -182 -35 -223 -56 -262 -133 -19 -36 -21 -58 -21 -191 0
-160 10 -216 45 -260 31 -39 77 -55 160 -55 96 0 128 10 222 69 62 39 83 48
97 40 22 -11 35 -73 23 -108 -9 -23 -15 -26 -59 -26 -41 0 -59 -7 -100 -35
l-50 -35 -165 0 c-91 0 -170 -3 -176 -7 -6 -4 -14 -32 -17 -63 -8 -83 -45
-152 -123 -231 -139 -140 -367 -327 -511 -419 -103 -65 -96 -105 16 -105 90 0
182 32 341 119 70 39 179 94 242 124 278 131 527 352 589 522 32 88 32 89 92
58 61 -32 110 -35 137 -7 36 35 60 125 60 221 1 156 22 211 154 385 124 166
216 267 388 424 224 207 255 231 296 239 163 29 390 171 589 370 138 136 158
174 156 290 0 69 -7 98 -46 208 -85 237 -209 436 -273 437 -36 0 -47 -24 -40
-85 14 -125 -69 -182 -120 -82 -27 51 -21 113 15 161 17 23 38 57 47 76 9 19
20 42 24 50 14 28 40 21 88 -24 27 -25 56 -46 65 -46 32 0 47 41 47 125 0 113
-23 206 -74 310 -66 134 -148 211 -337 318 -126 71 -232 197 -264 312 -9 33
-30 94 -45 135 -43 113 -48 140 -59 330 -16 267 -45 401 -96 434 -56 37 -292
47 -386 17z"/>
<path d="M8637 8213 c-100 -52 -105 -64 -93 -208 18 -212 102 -339 280 -426
88 -43 148 -56 189 -40 43 17 36 51 -28 121 -87 99 -145 223 -160 345 -15 122
-70 247 -108 244 -7 0 -43 -16 -80 -36z"/>
<path d="M7132 7878 c-5 -7 -12 -29 -15 -48 -24 -174 -59 -383 -72 -435 -19
-76 -15 -88 74 -202 61 -79 79 -88 187 -99 124 -13 217 39 289 160 40 69 43
92 15 143 -11 21 -20 48 -20 61 0 67 -49 83 -82 26 -14 -24 -37 -43 -72 -58
-28 -13 -71 -41 -96 -63 -112 -99 -170 -132 -170 -99 0 23 167 193 247 253
100 74 127 132 84 184 -16 20 -30 23 -115 29 -113 7 -138 21 -175 96 -32 64
-56 80 -79 52z"/>
<path d="M7990 6621 c-164 -52 -290 -155 -444 -363 -99 -134 -106 -149 -106
-227 0 -82 23 -138 100 -247 50 -70 72 -110 80 -148 5 -28 43 -116 83 -195
l72 -145 3 -158 c4 -175 -15 -340 -49 -416 -10 -24 -42 -69 -70 -100 -28 -31
-65 -84 -82 -119 -20 -40 -37 -63 -48 -63 -23 0 -27 14 -21 86 2 34 -1 79 -7
100 -7 21 -59 136 -117 254 -57 118 -111 244 -120 279 -26 104 -9 170 78 298
111 166 120 221 59 366 -80 190 -81 295 -6 409 40 60 41 81 6 120 -57 66 -170
106 -391 139 -256 39 -380 22 -477 -65 -101 -89 -141 -107 -298 -136 -173 -31
-243 -81 -253 -178 -9 -98 37 -158 288 -377 274 -240 320 -307 340 -495 5 -47
23 -125 40 -175 66 -192 118 -426 150 -665 12 -91 31 -197 42 -235 20 -73 70
-153 112 -180 15 -10 82 -24 165 -36 176 -23 237 -15 330 46 52 35 63 66 59
161 l-3 79 27 3 c22 3 30 -3 44 -29 23 -45 13 -119 -30 -223 -19 -44 -39 -107
-46 -138 -7 -32 -16 -58 -20 -58 -3 0 -26 20 -50 45 -24 25 -50 45 -57 45 -8
0 -27 -10 -43 -21 -52 -39 -185 -22 -303 38 -92 46 -143 28 -139 -50 2 -56 44
-202 89 -306 80 -187 150 -283 237 -328 43 -23 64 -27 138 -27 76 -1 89 2 110
22 31 28 47 28 107 -3 83 -42 134 -50 186 -31 54 21 83 54 129 148 41 87 89
145 153 187 54 36 56 36 77 15 28 -27 19 -50 -26 -70 -62 -28 -98 -62 -124
-119 -34 -71 -29 -141 10 -167 37 -25 218 2 300 44 111 57 610 472 659 548 28
44 37 126 46 410 9 284 19 339 74 435 49 85 406 530 533 665 29 30 84 93 122
140 97 118 159 160 276 185 86 18 109 29 139 64 44 52 50 91 44 251 -12 298
-81 517 -182 580 -48 29 -69 25 -105 -20 -51 -64 -78 -58 -186 40 -49 45 -102
88 -117 96 -56 30 -125 18 -292 -51 -117 -48 -252 -121 -264 -143 -14 -27 -31
-198 -31 -314 0 -177 -29 -357 -81 -498 -75 -203 -246 -556 -324 -665 -24 -33
-86 -100 -139 -149 -53 -49 -103 -101 -111 -117 -8 -15 -15 -52 -16 -81 -1
-78 -14 -157 -28 -171 -10 -9 -15 -8 -27 7 -19 27 -19 245 1 358 16 91 25 123
103 348 61 173 105 333 126 452 23 136 49 174 176 259 93 62 160 127 183 179
25 55 34 197 19 290 -17 107 -46 171 -112 243 -104 114 -135 111 -288 -21
l-64 -55 -73 36 c-40 20 -96 56 -124 81 -49 43 -55 46 -109 45 -31 0 -82 -8
-112 -18z"/>
<path d="M5240 5944 c-65 -12 -69 -14 -94 -69 -13 -30 -54 -97 -90 -149 -90
-128 -116 -187 -116 -260 0 -112 94 -258 222 -342 142 -94 210 -171 387 -436
83 -126 121 -174 152 -193 48 -31 122 -141 203 -303 71 -141 91 -191 127 -316
16 -54 38 -113 49 -131 25 -40 84 -95 142 -131 24 -15 60 -42 81 -60 43 -39
62 -42 78 -13 14 28 3 84 -24 121 -20 27 -22 41 -22 182 0 151 0 153 27 188
36 47 99 76 179 84 139 13 160 34 161 167 1 93 -12 149 -45 198 -12 18 -79 76
-149 129 -293 221 -493 411 -546 520 -51 105 -62 167 -68 370 -10 320 -13 325
-286 393 -174 44 -307 62 -368 51z"/>
<path d="M6511 4028 c-34 -14 -66 -37 -85 -61 -64 -80 -42 -246 53 -385 56
-82 153 -185 223 -238 97 -71 269 -131 306 -106 14 10 -4 54 -79 192 -63 115
-95 215 -109 337 -14 134 -34 197 -75 241 -32 35 -36 37 -107 39 -58 3 -84 -1
-127 -19z"/>
</g>
</svg>
